HIERARCHY
ROOT Hips
{
	OFFSET 0.00000 0.00000 0.00000
	CHANNELS 6 Xposition Yposition Zposition Zrotation Yrotation Xrotation 
	JOINT LHipJoint
	{
		OFFSET 0 0 0
		CHANNELS 3 Zrotation Yrotation Xrotation
		JOINT LeftUpLeg
		{
			OFFSET 1.28366 -1.58472 0.87544
			CHANNELS 3 Zrotation Yrotation Xrotation
			JOINT LeftLeg
			{
				OFFSET 2.18587 -6.00562 0.00000
				CHANNELS 3 Zrotation Yrotation Xrotation
				JOINT LeftFoot
				{
					OFFSET 2.39085 -6.56880 0.00000
					CHANNELS 3 Zrotation Yrotation Xrotation
					JOINT LeftToeBase
					{
						OFFSET 0.12003 -0.32979 2.03101
						CHANNELS 3 Zrotation Yrotation Xrotation
						End Site
						{
							OFFSET 0.00000 -0.00000 1.04074
						}
					}
				}
			}
		}
	}
	JOINT RHipJoint
	{
		OFFSET 0 0 0
		CHANNELS 3 Zrotation Yrotation Xrotation
		JOINT RightUpLeg
		{
			OFFSET -1.21795 -1.58472 0.87544
			CHANNELS 3 Zrotation Yrotation Xrotation
			JOINT RightLeg
			{
				OFFSET -2.22714 -6.11902 0.00000
				CHANNELS 3 Zrotation Yrotation Xrotation
				JOINT RightFoot
				{
					OFFSET -2.40306 -6.60235 0.00000
					CHANNELS 3 Zrotation Yrotation Xrotation
					JOINT RightToeBase
					{
						OFFSET -0.15519 -0.42640 1.91430
						CHANNELS 3 Zrotation Yrotation Xrotation
						End Site
						{
							OFFSET -0.00000 -0.00000 0.99082
						}
					}
				}
			}
		}
	}
	JOINT LowerBack
	{
		OFFSET 0 0 0
		CHANNELS 3 Zrotation Yrotation Xrotation
		JOINT Spine
		{
			OFFSET 0.01180 1.76430 -0.06387
			CHANNELS 3 Zrotation Yrotation Xrotation
			JOINT Spine1
			{
				OFFSET -0.00388 1.74651 0.09536
				CHANNELS 3 Zrotation Yrotation Xrotation
				JOINT Neck
				{
					OFFSET 0 0 0
					CHANNELS 3 Zrotation Yrotation Xrotation
					JOINT Neck1
					{
						OFFSET 0.04111 1.46174 0.14397
						CHANNELS 3 Zrotation Yrotation Xrotation
						JOINT Head
						{
							OFFSET 0.00502 1.44580 -0.31711
							CHANNELS 3 Zrotation Yrotation Xrotation
							End Site
							{
								OFFSET -0.00395 1.49251 -0.12327
							}
						}
					}
				}
				JOINT LeftShoulder
				{
					OFFSET 0 0 0
					CHANNELS 3 Zrotation Yrotation Xrotation
					JOINT LeftArm
					{
						OFFSET 2.70917 1.34870 -0.15417
						CHANNELS 3 Zrotation Yrotation Xrotation
						JOINT LeftForeArm
						{
							OFFSET 4.46610 -0.00000 -0.00000
							CHANNELS 3 Zrotation Yrotation Xrotation
							JOINT LeftHand
							{
								OFFSET 3.41414 -0.00000 0.00000
								CHANNELS 3 Zrotation Yrotation Xrotation
								JOINT LeftFingerBase
								{
									OFFSET 0 0 0
									CHANNELS 3 Zrotation Yrotation Xrotation
									JOINT LeftHandIndex1
									{
										OFFSET 0.32830 -0.00000 0.00000
										CHANNELS 3 Zrotation Yrotation Xrotation
										End Site
										{
											OFFSET 0.26468 -0.00000 0.00000
										}
									}
								}
								JOINT LThumb
								{
									OFFSET 0 0 0
									CHANNELS 3 Zrotation Yrotation Xrotation
									End Site
									{
										OFFSET 0.26872 -0.00000 0.26872
									}
								}
							}
						}
					}
				}
				JOINT RightShoulder
				{
					OFFSET 0 0 0
					CHANNELS 3 Zrotation Yrotation Xrotation
					JOINT RightArm
					{
						OFFSET -3.06316 1.13725 -0.10883
						CHANNELS 3 Zrotation Yrotation Xrotation
						JOINT RightForeArm
						{
							OFFSET -4.40431 -0.00000 0.00000
							CHANNELS 3 Zrotation Yrotation Xrotation
							JOINT RightHand
							{
								OFFSET -3.04688 -0.00000 0.00000
								CHANNELS 3 Zrotation Yrotation Xrotation
								JOINT RightFingerBase
								{
									OFFSET 0 0 0
									CHANNELS 3 Zrotation Yrotation Xrotation
									JOINT RightHandIndex1
									{
										OFFSET -0.50049 -0.00000 0.00000
										CHANNELS 3 Zrotation Yrotation Xrotation
										End Site
										{
											OFFSET -0.40351 -0.00000 0.00000
										}
									}
								}
								JOINT RThumb
								{
									OFFSET 0 0 0
									CHANNELS 3 Zrotation Yrotation Xrotation
									End Site
									{
										OFFSET -0.40967 -0.00000 0.40967
									}
								}
							}
						}
					}
				}
			}
		}
	}
}
MOTION
Frames: 10
Frame Time: .0083333
8.1 12.2714 1.8737 0 0 0 0 0 0 -21 0 0 0 0 0 0 0 0 0 0 0 0 0 0 21 0 0 0 0 0 0 0 0 0 0 0 0 0 0 0 0 0 0 0 0 0 0 -16 0 0 21 0 0 11 0 0 0 -8 0 0 0 0 0 0 0 0 0 0 0 0 0 0 0 0 0 0 0 0 8 0 0 0 0 0 0 0 0 0 0 0 0 0 0 0 0 0
8.1000 12.2714 1.8737 -84.0786 -84.3598 86.7417 0.0000 0.0000 0.0000 -4.2764 30.4768 -52.9320 20.6837 19.9888 91.9995 3.3105 -14.0104 -32.9914 0.0073 0.5534 1.5207 0.0000 0.0000 0.0000 13.8197 -32.9822 -53.9957 -19.6661 -19.9973 89.0238 -3.5089 7.0161 -34.1485 -0.0764 1.7835 -4.9077 0.0723 0.6452 6.9990 0.6303 0.8779 -5.2984 0.5008 0.4238 -9.5686 -1.7145 -4.6741 -17.6827 2.1365 -6.9488 23.7147 0.0321 -3.1824 10.6895 0.0000 0.0000 0.0000 2.2676 3.5532 34.4811 17.5009 -27.5133 -4.3162 -0.0000 0.0000 -12.0426 0.9740 8.6499 0.1465 -7.1250 0.0000 -0.0000 -21.9069 37.7224 4.1687 0.0000 0.0000 0.0000 10.1372 -3.7686 31.9462 -16.6420 26.3835 -3.9269 0.0000 -0.0000 -11.2765 -3.3944 9.1302 -0.5392 7.1250 -0.0000 -0.0000 16.7558 -20.9742 10.0799
8.1018 12.2724 1.8769 -83.7120 -84.3448 86.4190 0.0000 0.0000 0.0000 -4.3096 30.3215 -52.9637 20.6863 19.9887 92.0071 3.3200 -13.9202 -33.0332 0.0078 0.5699 1.5662 0.0000 0.0000 0.0000 13.8437 -32.9382 -54.0259 -19.6584 -19.9972 89.0011 -3.5082 7.0059 -34.1462 -0.0756 1.7733 -4.8794 0.1114 0.6689 7.0249 0.6377 0.9150 -5.3047 0.4809 0.4395 -9.5908 -1.5341 -4.5435 -17.8312 2.0558 -6.8046 23.8870 -0.0112 -3.1065 10.7682 -0.0000 -0.0000 0.0000 2.2319 3.4982 34.4766 17.5014 -27.5141 -4.3164 -0.0000 0.0000 -11.9220 1.1149 8.6310 0.1673 -7.1250 0.0000 -0.0000 -21.7876 37.7152 4.1473 -0.0000 -0.0000 0.0000 10.2422 -3.8314 31.8046 -16.6841 26.4395 -3.9457 0.0000 -0.0000 -11.4634 -3.4425 9.0899 -0.5445 7.1250 -0.0000 -0.0000 16.7266 -21.0120 10.0457
8.1027 12.2736 1.8802 -83.0787 -84.3313 85.8256 0.0000 0.0000 0.0000 -4.3551 30.1562 -52.9999 20.6854 19.9887 92.0043 3.3342 -13.7732 -33.0954 0.0059 0.4960 1.3628 0.0000 0.0000 0.0000 13.8605 -32.9295 -54.0541 -19.6485 -19.9970 88.9721 -3.5062 6.9898 -34.1378 -0.0740 1.7551 -4.8294 0.1377 0.6758 7.0498 0.6542 0.9289 -5.3044 0.4813 0.4451 -9.6052 -1.4990 -4.4846 -17.9306 2.1162 -6.7580 24.0286 0.0068 -3.0722 10.8401 0.0000 0.0000 0.0000 2.1779 3.4906 34.4554 17.5190 -27.5369 -4.3246 -0.0000 0.0000 -11.8679 1.1401 8.5605 0.1697 -7.1250 0.0000 -0.0000 -21.7469 37.6515 4.1748 0.0000 0.0000 0.0000 10.3273 -3.8224 31.5810 -16.6630 26.4113 -3.9362 0.0000 -0.0000 -11.5199 -3.5992 9.2106 -0.5768 7.1250 -0.0000 -0.0000 16.6052 -20.8935 10.0130
8.1036 12.2751 1.8839 -82.6598 -84.3209 85.4660 0.0000 0.0000 0.0000 -4.4098 29.9928 -53.0547 20.6831 19.9888 91.9976 3.3445 -13.6652 -33.1410 0.0062 0.5098 1.4007 0.0000 0.0000 0.0000 13.8856 -32.8905 -54.1024 -19.6388 -19.9969 88.9438 -3.5047 6.9673 -34.1323 -0.0746 1.7622 -4.8490 0.1629 0.6992 7.0491 0.6715 0.9643 -5.3313 0.4802 0.4610 -9.6348 -1.5557 -4.4418 -17.9490 2.2484 -6.7306 24.1808 0.0646 -3.0481 10.9074 -0.0000 0.0000 0.0000 2.1435 3.4100 34.5515 17.5114 -27.5270 -4.3210 -0.0000 0.0000 -11.9188 1.1255 8.5946 0.1682 -7.1250 0.0000 -0.0000 -21.7685 37.6822 4.1620 -0.0000 0.0000 0.0000 10.3926 -3.8587 31.4128 -16.6493 26.3931 -3.9302 0.0000 -0.0000 -11.4959 -3.6039 9.2577 -0.5805 7.1250 -0.0000 -0.0000 16.5971 -20.8482 10.0255
8.1038 12.2769 1.8878 -82.1129 -84.3346 84.9660 0.0000 0.0000 0.0000 -4.4914 29.8200 -53.0582 20.6716 19.9892 91.9639 3.3605 -13.5891 -33.2167 0.0072 0.5489 1.5082 0.0000 0.0000 0.0000 13.8800 -32.8703 -54.1361 -19.6271 -19.9967 88.9097 -3.5055 6.9040 -34.1436 -0.0719 1.7301 -4.7603 0.1660 0.7115 7.0299 0.6778 0.9814 -5.3385 0.4827 0.4692 -9.6314 -1.4521 -4.3966 -17.8926 2.2434 -6.7071 24.2716 0.0492 -3.0299 10.9257 -0.0000 0.0000 0.0000 2.0782 3.4018 34.4484 17.5635 -27.5947 -4.3452 -0.0000 0.0000 -11.7821 1.1143 8.5081 0.1649 -7.1250 0.0000 -0.0000 -21.7526 37.6011 4.2049 -0.0000 0.0000 0.0000 10.4368 -3.8464 31.2845 -16.6144 26.3466 -3.9147 0.0000 -0.0000 -11.4234 -3.6171 9.2049 -0.5794 7.1250 -0.0000 -0.0000 16.5933 -20.8986 10.0032
8.1042 12.2792 1.8915 -81.6378 -84.3364 84.5391 0.0000 0.0000 0.0000 -4.5575 29.6613 -53.0758 20.6601 19.9895 91.9304 3.3730 -13.4984 -33.2751 0.0075 0.5592 1.5367 0.0000 0.0000 0.0000 13.8901 -32.8418 -54.1677 -19.6134 -19.9964 88.8695 -3.5054 6.8508 -34.1491 -0.0709 1.7174 -4.7253 0.1789 0.7285 7.0278 0.6866 1.0063 -5.3507 0.4811 0.4806 -9.6439 -1.4135 -4.3430 -17.8912 2.2983 -6.6685 24.3810 0.0666 -3.0021 10.9663 0.0000 -0.0000 0.0000 2.0340 3.3741 34.4254 17.5996 -27.6415 -4.3619 -0.0000 0.0000 -11.7325 1.1059 8.4704 0.1629 -7.1250 0.0000 -0.0000 -21.7486 37.5654 4.2243 0.0000 -0.0000 0.0000 10.5067 -3.8513 31.1009 -16.5826 26.3042 -3.9006 0.0000 -0.0000 -11.3631 -3.6602 9.2249 -0.5876 7.1250 -0.0000 -0.0000 16.5613 -20.8786 9.9900
8.1044 12.2820 1.8953 -81.1687 -84.3407 84.1181 0.0000 0.0000 0.0000 -4.6279 29.5077 -53.0867 20.6445 19.9900 91.8848 3.3857 -13.4140 -33.3342 0.0078 0.5711 1.5694 0.0000 0.0000 0.0000 13.8990 -32.8120 -54.1950 -19.5970 -19.9961 88.8217 -3.5055 6.7859 -34.1575 -0.0700 1.7069 -4.6962 0.1887 0.7457 7.0233 0.6935 1.0309 -5.3637 0.4791 0.4920 -9.6557 -1.3840 -4.2943 -17.8733 2.3627 -6.6364 24.4772 0.0886 -2.9772 10.9997 -0.0000 0.0000 0.0000 1.9943 3.3514 34.4017 17.6453 -27.7007 -4.3831 -0.0000 0.0000 -11.7006 1.0858 8.4401 0.1594 -7.1250 0.0000 -0.0000 -21.7560 37.5359 4.2428 -0.0000 0.0000 0.0000 10.5778 -3.8517 30.9055 -16.5422 26.2502 -3.8827 0.0000 -0.0000 -11.2737 -3.7097 9.2473 -0.5970 7.1250 -0.0000 -0.0000 16.5246 -20.8562 9.9747
8.1045 12.2854 1.8992 -80.6961 -84.3453 83.6944 0.0000 0.0000 0.0000 -4.7008 29.3586 -53.0949 20.6265 19.9906 91.8321 3.3983 -13.3363 -33.3936 0.0083 0.5865 1.6118 0.0000 0.0000 0.0000 13.9095 -32.7790 -54.2197 -19.5784 -19.9957 88.7674 -3.5059 6.7100 -34.1683 -0.0694 1.7002 -4.6778 0.1979 0.7628 7.0172 0.6986 1.0551 -5.3767 0.4757 0.5032 -9.6666 -1.3539 -4.2461 -17.8488 2.4276 -6.6047 24.5638 0.1110 -2.9526 11.0283 0.0000 0.0000 0.0000 1.9597 3.3315 34.3781 17.6979 -27.7686 -4.4076 -0.0000 0.0000 -11.6843 1.0717 8.4144 0.1568 -7.1250 0.0000 -0.0000 -21.7601 37.5109 4.2579 0.0000 0.0000 0.0000 10.6563 -3.8498 30.6858 -16.4964 26.1891 -3.8624 0.0000 -0.0000 -11.1639 -3.7658 9.2705 -0.6075 7.1250 -0.0000 -0.0000 16.4833 -20.8328 9.9566
8.1045 12.2892 1.9032 -80.1898 -84.3532 83.2371 0.0000 0.0000 0.0000 -4.7809 29.2126 -53.1015 20.6058 19.9912 91.7716 3.4110 -13.2548 -33.4534 0.0085 0.5960 1.6377 0.0000 0.0000 0.0000 13.9160 -32.7457 -54.2404 -19.5579 -19.9953 88.7074 -3.5063 6.6287 -34.1799 -0.0690 1.6953 -4.6642 0.2035 0.7791 7.0090 0.7013 1.0778 -5.3872 0.4720 0.5138 -9.6734 -1.3186 -4.1974 -17.8283 2.4863 -6.5715 24.6435 0.1306 -2.9274 11.0547 0.0000 0.0000 0.0000 1.9268 3.3147 34.3497 17.7546 -27.8417 -4.4340 -0.0000 0.0000 -11.6842 1.0647 8.3913 0.1554 -7.1250 0.0000 -0.0000 -21.7591 37.4890 4.2702 0.0000 0.0000 0.0000 10.7410 -3.8477 30.4446 -16.4507 26.1279 -3.8423 0.0000 -0.0000 -11.0643 -3.8390 9.2941 -0.6209 7.1250 -0.0000 -0.0000 16.4301 -20.8087 9.9311
